#!OML:ASF H:\ManfredETheater\Project 1\Capture day 1\Session 1\subject.ASF
:FULLY-SPECIFIED
:DEGREES
157
root -2.33418 20.8666 23.7536 13.5002 -3.24313 -6.68029
lowerback 5.35049 3.01406 4.67491
upperback -3.40081 4.55489 2.21635
thorax -6.37705 2.0949 -0.781671
lowerneck -20.3177 -2.73107 -3.64726
upperneck 21.2135 -2.59719 -0.161624
head 10.1825 -1.51299 0.167426
rclavicle -5.92875e-014 1.98785e-015
rhumerus -51.8934 13.1771 -94.6221
rradius 125.606
rwrist -7.99638
rhand -23.0026 11.368
rfingers 7.12502
rthumb 3.44061 -18.5839
lclavicle -5.92875e-014 1.98785e-015
lhumerus -83.7626 -16.3732 99.5032
lradius 101.347
lwrist 14.7274
lhand -22.0591 -18.5847
lfingers 7.12502
lthumb 4.3517 11.3506
rfemur 16.7276 -2.58769 29.4566
rtibia 16.5088
rfoot 3.83966 0.694308
rtoes -31.4183
lfemur -54.729 4.63402 -14.3674
ltibia 67.0763
lfoot -4.98005 -5.20387
ltoes -10.387
158
root -2.35764 20.8148 24.3002 13.5048 -3.07343 -6.72234
lowerback 4.85567 3.17786 4.73521
upperback -3.59663 4.74841 2.0916
thorax -6.27671 2.18642 -0.938139
lowerneck -20.1735 -2.91312 -3.80524
upperneck 21.711 -2.88711 0.152009
head 10.3484 -1.62421 0.260583
rclavicle -1.2424e-015 1.64991e-014
rhumerus -52.264 13.6672 -94.5201
rradius 126.499
rwrist -7.28991
rhand -22.6112 11.448
rfingers 7.12502
rthumb 3.81852 -18.4975
lclavicle -1.2424e-015 1.64991e-014
lhumerus -85.3842 -16.3701 99.3784
lradius 102.158
lwrist 15.036
lhand -22.0787 -18.5784
lfingers 7.12502
lthumb 4.33275 11.3573
rfemur 19.2565 -2.53173 29.0583
rtibia 13.8797
rfoot 8.74871 1.26429
rtoes -29.0922
lfemur -54.8337 4.12332 -14.5019
ltibia 63.5979
lfoot -3.1273 -5.70865
ltoes -10.658
159
root -2.38125 20.7615 24.8491 13.5171 -3.02468 -6.70459
lowerback 4.3638 3.36774 4.71899
upperback -3.79042 4.96914 1.93265
thorax -6.17625 2.2941 -1.08771
lowerneck -20.0355 -3.08668 -3.95684
upperneck 22.1858 -3.1709 0.466874
head 10.5097 -1.73103 0.35451
rclavicle -1.86361e-014 -2.5842e-015
rhumerus -52.6345 14.1376 -94.3974
rradius 127.269
rwrist -6.586
rhand -22.1908 11.445
rfingers 7.12502
rthumb 4.22456 -18.4929
lclavicle -1.86361e-014 -2.5842e-015
lhumerus -86.9194 -16.377 99.1955
lradius 102.997
lwrist 15.4364
lhand -22.125 -18.5507
lfingers 7.12502
lthumb 4.28809 11.3859
rfemur 21.5565 -2.34413 28.5811
rtibia 11.6427
rfoot 13.4116 1.68442
rtoes -26.4659
lfemur -54.7448 3.64231 -14.6403
ltibia 59.9953
lfoot -1.13189 -6.22145
ltoes -11.0984
160
root -2.4044 20.6973 25.3966 13.5319 -3.10615 -6.63012
lowerback 3.89758 3.58265 4.62596
upperback -3.98506 5.21884 1.74471
thorax -6.09251 2.4185 -1.22626
lowerneck -19.8979 -3.24649 -4.09685
upperneck 22.6334 -3.4393 0.769717
head 10.6627 -1.8305 0.445121
rclavicle 6.95746e-015 4.57205e-015
rhumerus -53.0076 14.6033 -94.257
rradius 127.925
rwrist -5.9356
rhand -21.7676 11.3606
rfingers 7.12502
rthumb 4.63317 -18.5687
lclavicle 6.95746e-015 4.57205e-015
lhumerus -88.371 -16.3996 98.9583
lradius 103.863
lwrist 15.9018
lhand -22.2322 -18.5076
lfingers 7.12502
lthumb 4.18457 11.4311
rfemur 23.4129 -2.02301 28.0319
rtibia 10.2924
rfoot 17.3382 2.06776
rtoes -23.8308
lfemur -54.5212 3.18342 -14.7701
ltibia 56.355
lfoot 0.937477 -6.70655
ltoes -11.7213
161
root -2.42713 20.6218 25.9419 13.5389 -3.32161 -6.52421
lowerback 3.44209 3.81847 4.49671
upperback -4.15841 5.49346 1.52998
thorax -5.99083 2.55706 -1.37129
lowerneck -19.7549 -3.38241 -4.20783
upperneck 23.0313 -3.68039 1.05023
head 10.7967 -1.91703 0.527825
rclavicle 1.15295e-014 1.59028e-015
rhumerus -53.3515 15.0805 -94.1119
rradius 128.472
rwrist -5.38035
rhand -21.3573 11.2012
rfingers 7.12502
rthumb 5.02934 -18.7191
lclavicle 1.15295e-014 1.59028e-015
lhumerus -89.7158 -16.4354 98.6441
lradius 104.76
lwrist 16.3886
lhand -22.4123 -18.4281
lfingers 7.12502
lthumb 4.01062 11.5139
rfemur 24.7161 -1.57203 27.4362
rtibia 10.0924
rfoot 20.2248 2.51423
rtoes -21.5124
lfemur -54.1543 2.74531 -14.8548
ltibia 52.7073
lfoot 2.99326 -7.10675
ltoes -12.5309
